name GIL12_slow4.mot
datacolumns 153
datarows 4
range 0.59166670 0.61666667
endheader

                time	           pelvis_tx	           pelvis_ty	           pelvis_tz	         pelvis_tilt	         pelvis_list	     pelvis_rotation	       hip_flexion_r	     hip_adduction_r	      hip_rotation_r	        knee_angle_r	       ankle_angle_r	    subtalar_angle_r	         mtp_angle_r	       hip_flexion_l	     hip_adduction_l	      hip_rotation_l	        knee_angle_l	       ankle_angle_l	    subtalar_angle_l	         mtp_angle_l	    lumbar_extension	      lumbar_bending	     lumbar_rotation	     ground_force_vx	     ground_force_vy	     ground_force_vz	     ground_force_px	     ground_force_py	     ground_force_pz	     ground_force_vx	     ground_force_vy	     ground_force_vz	     ground_force_px	     ground_force_py	     ground_force_pz	     ground_torque_x	     ground_torque_y	     ground_torque_z	     ground_torque_x	     ground_torque_y	     ground_torque_z	    ground_marker_px	    ground_marker_py	    ground_marker_pz	    ground_marker_px	    ground_marker_py	    ground_marker_pz	    ground_marker_px	    ground_marker_py	    ground_marker_pz	    ground_marker_px	    ground_marker_py	    ground_marker_pz	    ground_marker_px	    ground_marker_py	    ground_marker_pz	    ground_marker_px	    ground_marker_py	    ground_marker_pz	    ground_marker_px	    ground_marker_py	    ground_marker_pz	    ground_marker_px	    ground_marker_py	    ground_marker_pz	    ground_marker_px	    ground_marker_py	    ground_marker_pz	    ground_marker_px	    ground_marker_py	    ground_marker_pz	    ground_marker_px	    ground_marker_py	    ground_marker_pz	    ground_marker_px	    ground_marker_py	    ground_marker_pz	    ground_marker_px	    ground_marker_py	    ground_marker_pz	    ground_marker_px	    ground_marker_py	    ground_marker_pz	    ground_marker_px	    ground_marker_py	    ground_marker_pz	    ground_marker_px	    ground_marker_py	    ground_marker_pz	    ground_marker_px	    ground_marker_py	    ground_marker_pz	    ground_marker_px	    ground_marker_py	    ground_marker_pz	    ground_marker_px	    ground_marker_py	    ground_marker_pz	    ground_marker_px	    ground_marker_py	    ground_marker_pz	    ground_marker_px	    ground_marker_py	    ground_marker_pz	    ground_marker_px	    ground_marker_py	    ground_marker_pz	    ground_marker_px	    ground_marker_py	    ground_marker_pz	    ground_marker_px	    ground_marker_py	    ground_marker_pz	    ground_marker_px	    ground_marker_py	    ground_marker_pz	    ground_marker_px	    ground_marker_py	    ground_marker_pz	    ground_marker_px	    ground_marker_py	    ground_marker_pz	    ground_marker_px	    ground_marker_py	    ground_marker_pz	    ground_marker_px	    ground_marker_py	    ground_marker_pz	    ground_marker_px	    ground_marker_py	    ground_marker_pz	    ground_marker_px	    ground_marker_py	    ground_marker_pz	    ground_marker_px	    ground_marker_py	    ground_marker_pz	    ground_marker_px	    ground_marker_py	    ground_marker_pz	    ground_marker_px	    ground_marker_py	    ground_marker_pz	    ground_marker_px	    ground_marker_py	    ground_marker_pz	    ground_marker_px	    ground_marker_py	    ground_marker_pz	    ground_marker_px	    ground_marker_py	    ground_marker_pz	
          0.59166670	         -1.33758140	          0.70267349	          0.26008159	         10.16886425	          1.21805942	          0.13104285	         -9.19742203	          3.37696695	        -11.70223141	        -13.19679546	         12.64582920	          0.00000000	          0.00000000	         14.07196808	         -0.45793334	         -3.13373208	        -21.88615417	         -0.97534084	          0.00000000	          0.00000000	        -34.60779953	         -0.61372346	          8.36548519	         13.33221737	        250.52121122	         -1.84475083	         -1.41414954	          0.00000000	          0.27949179	          0.00000000	          0.00000000	          0.00000000	         -1.04478656	          0.00000000	          0.21216290	          0.00000000	          0.53383594	          0.00000000	          0.00000000	          0.00000000	          0.00000000	         -1.38008952	          0.62397337	          0.25948164	         -1.37565267	          0.63553190	          0.31744689	         -1.37584138	          0.63803583	          0.20002878	         -1.37067056	          0.34062096	          0.29371566	         -1.24949360	          0.35755125	          0.19138429	         -1.43493032	          0.05286020	          0.27209538	         -1.23854065	          0.07233409	          0.17167142	         -1.33758140	          0.70267349	          0.26008159	         -1.33743489	          0.70072854	          0.35128871	         -1.33772802	          0.70461845	          0.16887446	         -1.47644711	          0.70915842	          0.30037966	         -1.47193182	          0.70497382	          0.21740833	         -1.37988186	          0.33685148	          0.33862603	         -1.25212061	          0.35784504	          0.14345713	         -1.37387872	          0.34444901	          0.25234404	         -1.24014938	          0.35621533	          0.23201951	         -1.43916965	          0.05131289	          0.30529001	         -1.25272691	          0.07380769	          0.14246821	         -1.43671966	          0.06024801	          0.24444017	         -1.23720288	          0.07203254	          0.20541587	         -1.39033794	          1.02819633	          0.28393787	         -1.30884624	          0.94317234	          0.31080899	         -1.32138336	          0.94955307	          0.22157630	         -1.32576656	          0.96123779	          0.27658263	         -1.31090236	          0.82106495	          0.25924799	         -1.25339592	          0.43023163	          0.30084142	         -1.22591126	          0.45990419	          0.08603417	         -1.32642603	          0.48019251	          0.33810791	         -1.25333774	          0.50595802	          0.16846198	         -1.34177089	          0.39409286	          0.33217159	         -1.21833003	          0.43061301	          0.18426612	         -1.39719021	          0.11806026	          0.37616754	         -1.14834738	          0.18290852	          0.18740493	         -1.40071452	          0.19132814	          0.32341418	         -1.21228480	          0.23656523	          0.17876138	         -1.34949446	          0.04127040	          0.26467666	         -1.15718663	          0.05893108	          0.16160449	
          0.60000002	         -1.33357084	          0.70228738	          0.25998989	         10.13908482	          1.17116821	          0.02262953	         -9.57669735	          3.38562608	        -11.76246262	        -13.12573910	         12.89294815	          0.00000000	          0.00000000	         14.23389816	         -0.32230249	         -3.55256033	        -19.89314461	         -1.09064090	          0.00000000	          0.00000000	        -34.71294022	         -0.69519717	          8.50523186	         13.69275339	        249.99732753	         -2.15613813	         -1.41219568	          0.00000000	          0.27956308	          0.00000000	          0.00000000	          0.00000000	         -1.04464008	          0.00000000	          0.21195995	          0.00000000	          0.55000507	          0.00000000	          0.00000000	          0.00000000	          0.00000000	         -1.37609291	          0.62361050	          0.25946200	         -1.37178648	          0.63521755	          0.31734309	         -1.37175488	          0.63761830	          0.19992265	         -1.36888051	          0.34026361	          0.29383481	         -1.24463344	          0.35712829	          0.19248889	         -1.43478000	          0.05285374	          0.27207449	         -1.22320509	          0.07197121	          0.17244782	         -1.33357084	          0.70228738	          0.25998989	         -1.33359540	          0.70042253	          0.35119954	         -1.33354628	          0.70415223	          0.16878022	         -1.47260392	          0.70896131	          0.30050611	         -1.46763837	          0.70453674	          0.21702179	         -1.37824333	          0.33659378	          0.33872211	         -1.24744093	          0.35712585	          0.14457107	         -1.37210906	          0.34442264	          0.25245106	         -1.23692191	          0.35539404	          0.23309162	         -1.43903935	          0.05131724	          0.30526710	         -1.23702383	          0.07299892	          0.14304987	         -1.43640411	          0.06033069	          0.24444203	         -1.22216010	          0.07180255	          0.20621768	         -1.38600719	          1.02792239	          0.28335404	         -1.30458570	          0.94270897	          0.31024754	         -1.31719708	          0.94901478	          0.22100708	         -1.32155406	          0.96075332	          0.27600822	         -1.30691946	          0.82054883	          0.25881824	         -1.25097549	          0.42897210	          0.30121821	         -1.22209156	          0.45882830	          0.08710378	         -1.32348311	          0.47966987	          0.33839247	         -1.24995983	          0.50508064	          0.16925313	         -1.33965433	          0.39366782	          0.33236313	         -1.21493495	          0.42968744	          0.18532193	         -1.39666045	          0.11787581	          0.37629601	         -1.13758111	          0.18612376	          0.18962711	         -1.39984787	          0.19120766	          0.32351077	         -1.20365787	          0.23724194	          0.18024769	         -1.34946680	          0.04115879	          0.26463848	         -1.14116037	          0.06131205	          0.16364537	
          0.60833335	         -1.32949984	          0.70185733	          0.25989366	         10.08670330	          1.12191415	         -0.07083407	         -9.92544556	          3.39888453	        -11.84241867	        -13.07708263	         13.14748478	          0.00000000	          0.00000000	         14.40593338	         -0.19141516	         -4.00710154	        -17.92957878	         -1.20370817	          0.00000000	          0.00000000	        -34.73873520	         -0.77201104	          8.60469818	         13.90207252	        249.50951867	         -2.43733729	         -1.41013025	          0.00000000	          0.27960376	          0.00000000	          0.00000000	          0.00000000	         -1.04451489	          0.00000000	          0.21170882	          0.00000000	          0.56628320	          0.00000000	          0.00000000	          0.00000000	          0.00000000	         -1.37204170	          0.62320805	          0.25944358	         -1.36787081	          0.63487613	          0.31724671	         -1.36764896	          0.63716954	          0.19982436	         -1.36700439	          0.33987671	          0.29393902	         -1.23982644	          0.35667044	          0.19355714	         -1.43462169	          0.05285394	          0.27203619	         -1.20814133	          0.07196449	          0.17347252	         -1.32949984	          0.70185733	          0.25989366	         -1.32967222	          0.70007575	          0.35110974	         -1.32932746	          0.70363891	          0.16867760	         -1.46880054	          0.70880353	          0.30081183	         -1.46333444	          0.70408028	          0.21668679	         -1.37652194	          0.33630419	          0.33880162	         -1.24285471	          0.35636079	          0.14565377	         -1.37002552	          0.34422630	          0.25247031	         -1.23358226	          0.35440040	          0.23400562	         -1.43889010	          0.05132664	          0.30522802	         -1.22163546	          0.07254808	          0.14391211	         -1.43611085	          0.06038909	          0.24444135	         -1.20740724	          0.07192262	          0.20731375	         -1.38168192	          1.02755356	          0.28276300	         -1.30031610	          0.94224030	          0.30967617	         -1.31296873	          0.94843727	          0.22042198	         -1.31728399	          0.96023810	          0.27542070	         -1.30282462	          0.82001168	          0.25841323	         -1.24848557	          0.42767060	          0.30159691	         -1.21835268	          0.45769444	          0.08804465	         -1.32060814	          0.47907060	          0.33863339	         -1.24649501	          0.50404674	          0.17004877	         -1.33740735	          0.39314860	          0.33249646	         -1.21149778	          0.42866829	          0.18624046	         -1.39607668	          0.11765704	          0.37639987	         -1.12711656	          0.18946852	          0.19178373	         -1.39886796	          0.19108303	          0.32359129	         -1.19253039	          0.23892231	          0.18248767	         -1.34943891	          0.04104262	          0.26459536	         -1.12552655	          0.06401433	          0.16582632	
          0.61666667	         -1.32536602	          0.70138359	          0.25979111	         10.02764797	          1.07147241	         -0.14962600	        -10.26420021	          3.41559196	        -11.94058037	        -13.04738998	         13.41752434	          0.00000000	          0.00000000	         14.56752586	         -0.06140747	         -4.47965956	        -15.99781799	         -1.31719089	          0.00000000	          0.00000000	        -34.73467636	         -0.83546722	          8.68794823	         14.05121759	        249.07109225	         -2.68182596	         -1.40800830	          0.00000000	          0.27961469	          0.00000000	          0.00000000	          0.00000000	         -1.04439764	          0.00000000	          0.21143375	          0.00000000	          0.58156586	          0.00000000	          0.00000000	          0.00000000	          0.00000000	         -1.36809754	          0.62280321	          0.25954428	         -1.36388493	          0.63449615	          0.31715450	         -1.36350286	          0.63668048	          0.19973047	         -1.36504555	          0.33945653	          0.29402736	         -1.23508275	          0.35617650	          0.19459970	         -1.43446290	          0.05285974	          0.27198026	         -1.19340312	          0.07228535	          0.17472358	         -1.32536602	          0.70138359	          0.25979111	         -1.32566297	          0.69968659	          0.35101750	         -1.32506919	          0.70308059	          0.16856472	         -1.46495986	          0.70862043	          0.30116436	         -1.45904171	          0.70359510	          0.21640928	         -1.37471986	          0.33598000	          0.33886391	         -1.23835731	          0.35555318	          0.14671558	         -1.36776280	          0.34387848	          0.25241721	         -1.23018587	          0.35345256	          0.23497857	         -1.43873107	          0.05134017	          0.30517244	         -1.20662868	          0.07242209	          0.14503665	         -1.43604803	          0.06041072	          0.24442537	         -1.19288504	          0.07240310	          0.20863287	         -1.37729585	          1.02708876	          0.28209439	         -1.29603505	          0.94170302	          0.30910584	         -1.30872226	          0.94779366	          0.21983618	         -1.31295431	          0.95968831	          0.27481937	         -1.29873598	          0.81940693	          0.25800839	         -1.24592996	          0.42632303	          0.30197340	         -1.21465826	          0.45650986	          0.08887378	         -1.31789255	          0.47827387	          0.33885294	         -1.24286389	          0.50296402	          0.17076552	         -1.33511567	          0.39264432	          0.33260003	         -1.20799696	          0.42765698	          0.18710124	         -1.39545047	          0.11739463	          0.37647825	         -1.11695802	          0.19291660	          0.19382790	         -1.39796782	          0.19073142	          0.32377490	         -1.18338728	          0.24007323	          0.18420786	         -1.34940660	          0.04092953	          0.26454812	         -1.11033499	          0.06699786	          0.16809629	
